#!OML:ASF X:\für Bonn\!DataBase\2005_08_11_Bastian_Final\c3d\Bastian.ASF
:FULLY-SPECIFIED
:DEGREES
621
root -2.38489 1.15753 21.489 -1000.67 -1.5174 -177.152
lowerback 10.9953 -1.46883 1.13151
upperback 7.92458 -2.62518 1.34756
thorax 2.13223 -1.6784 0.981083
lowerneck -24.1236 -3.23962 -5.10581
upperneck 0.59374 -3.69872 4.21141
head 4.05566 -1.8103 1.7549
rclavicle 2.62396e-014 -2.55438e-014
rhumerus -62.4679 56.2785 -107.356
rradius 25.5012
rwrist -14.6559
rhand -13.7469 -3.72771
rfingers 7.12502
rthumb 12.3731 -33.3416
lclavicle 2.62396e-014 -2.55438e-014
lhumerus -45.3399 -45.7763 100.752
lradius 21.0462
lwrist 26.8492
lhand -9.68571 -2.90343
lfingers 7.12502
lthumb 16.2863 26.4326
rfemur 2.06795 6.60992 24.4561
rtibia 31.8364
rfoot -25.3513 -34.6618
rtoes 4.73806
lfemur 4.1339 1.38109 -14.2309
ltibia 21.5218
lfoot 2.13869 -0.709848
ltoes -5.55272
622
root -2.38441 1.15666 21.4897 -1000.64 -1.51218 -177.144
lowerback 10.9696 -1.46858 1.14225
upperback 7.93628 -2.62538 1.34245
thorax 2.15785 -1.67824 0.968384
lowerneck -24.2463 -3.23462 -5.10631
upperneck 0.636801 -3.69009 4.22648
head 4.08627 -1.80475 1.75926
rclavicle -2.38542e-015 -1.39149e-014
rhumerus -62.362 56.246 -107.26
rradius 25.4903
rwrist -14.5427
rhand -13.7483 -3.73825
rfingers 7.12502
rthumb 12.3718 -33.3522
lclavicle -2.38542e-015 -1.39149e-014
lhumerus -45.2102 -45.7044 100.626
lradius 20.9804
lwrist 26.7074
lhand -9.67531 -2.98338
lfingers 7.12502
lthumb 16.2963 26.3518
rfemur 2.03247 6.54542 24.4407
rtibia 31.8309
rfoot -25.2855 -34.6494
rtoes 4.63661
lfemur 4.10151 1.3589 -14.223
ltibia 21.5192
lfoot 2.11311 -0.65234
ltoes -5.68496
623
root -2.38468 1.15643 21.4903 -1000.62 -1.49534 -177.155
lowerback 10.9359 -1.4683 1.16429
upperback 7.93943 -2.62381 1.3462
thorax 2.17874 -1.67648 0.958314
lowerneck -24.2728 -3.2281 -5.08033
upperneck 0.620407 -3.68521 4.17683
head 4.08278 -1.80597 1.73973
rclavicle 1.31198e-014 3.04141e-014
rhumerus -62.1197 56.1278 -107.018
rradius 25.4421
rwrist -14.3797
rhand -13.7293 -3.70039
rfingers 7.12502
rthumb 12.3901 -33.3132
lclavicle 1.31198e-014 3.04141e-014
lhumerus -45.191 -45.695 100.614
lradius 20.971
lwrist 26.7258
lhand -9.67622 -3.03025
lfingers 7.12502
lthumb 16.2954 26.305
rfemur 2.0054 6.54722 24.448
rtibia 31.828
rfoot -25.3123 -34.6114
rtoes 4.7939
lfemur 4.07727 1.39066 -14.193
ltibia 21.5107
lfoot 2.09242 -0.595913
ltoes -5.78307
624
root -2.38402 1.15611 21.4915 -1000.59 -1.4941 -177.166
lowerback 10.9154 -1.46445 1.15976
upperback 7.93223 -2.61787 1.34871
thorax 2.18248 -1.67291 0.962285
lowerneck -24.3453 -3.22255 -5.05658
upperneck 0.668307 -3.67732 4.13094
head 4.10605 -1.80403 1.72126
rclavicle 3.85642e-014 -1.86858e-014
rhumerus -62.1488 56.1363 -107.04
rradius 25.4582
rwrist -14.3824
rhand -13.7281 -3.71721
rfingers 7.12502
rthumb 12.3912 -33.33
lclavicle 3.85642e-014 -1.86858e-014
lhumerus -45.1171 -45.5724 100.508
lradius 20.9535
lwrist 26.5561
lhand -9.67388 -3.05968
lfingers 7.12502
lthumb 16.2977 26.2754
rfemur 1.97145 6.48978 24.4287
rtibia 31.8236
rfoot -25.2351 -34.591
rtoes 4.68837
lfemur 4.06071 1.35827 -14.1921
ltibia 21.5039
lfoot 2.06268 -0.492604
ltoes -5.90153
625
root -2.3841 1.15575 21.4921 -1000.57 -1.4935 -177.177
lowerback 10.8765 -1.46077 1.16075
upperback 7.94599 -2.61472 1.34954
thorax 2.218 -1.6716 0.960303
lowerneck -24.4117 -3.21632 -5.04159
upperneck 0.678795 -3.66993 4.10302
head 4.11723 -1.80229 1.71009
rclavicle -8.74653e-015 1.66979e-014
rhumerus -62.0666 56.1251 -106.958
rradius 25.4583
rwrist -14.3504
rhand -13.7318 -3.71287
rfingers 7.12502
rthumb 12.3877 -33.3258
lclavicle -8.74653e-015 1.66979e-014
lhumerus -44.9816 -45.5017 100.398
lradius 20.8967
lwrist 26.4866
lhand -9.64915 -3.09814
lfingers 7.12502
lthumb 16.3215 26.235
rfemur 1.93462 6.40617 24.3974
rtibia 31.8193
rfoot -25.1366 -34.5453
rtoes 4.52574
lfemur 4.03633 1.34505 -14.185
ltibia 21.4996
lfoot 2.00691 -0.394239
ltoes -5.82558
626
root -2.38424 1.15558 21.4926 -1000.54 -1.4966 -177.188
lowerback 10.8432 -1.45542 1.17085
upperback 7.95314 -2.60709 1.3408
thorax 2.24272 -1.66684 0.943362
lowerneck -24.4491 -3.22704 -5.058
upperneck 0.678793 -3.67992 4.11314
head 4.12328 -1.8069 1.71448
rclavicle 1.19271e-014 -1.08338e-014
rhumerus -62.0541 56.1268 -106.958
rradius 25.4738
rwrist -14.3786
rhand -13.7312 -3.70643
rfingers 7.12502
rthumb 12.3882 -33.3194
lclavicle 1.19271e-014 -1.08338e-014
lhumerus -44.9538 -45.5053 100.367
lradius 20.8886
lwrist 26.4668
lhand -9.68216 -3.12658
lfingers 7.12502
lthumb 16.2897 26.2092
rfemur 1.91432 6.37173 24.3784
rtibia 31.8137
rfoot -25.1139 -34.4805
rtoes 4.6216
lfemur 4.01443 1.37346 -14.1778
ltibia 21.4954
lfoot 1.97634 -0.315728
ltoes -6.01094
627
root -2.38404 1.15486 21.4926 -1000.53 -1.46924 -177.194
lowerback 10.8351 -1.46021 1.21034
upperback 7.94884 -2.60979 1.33521
thorax 2.24083 -1.66613 0.915528
lowerneck -24.4905 -3.21343 -5.02448
upperneck 0.723165 -3.66713 4.09004
head 4.14144 -1.80107 1.70256
rclavicle -2.10712e-014 5.96354e-015
rhumerus -61.8964 56.0357 -106.822
rradius 25.4267
rwrist -14.2269
rhand -13.7033 -3.69146
rfingers 7.12502
rthumb 12.4152 -33.3028
lclavicle -2.10712e-014 5.96354e-015
lhumerus -44.8983 -45.4276 100.29
lradius 20.8315
lwrist 26.354
lhand -9.68793 -3.20344
lfingers 7.12502
lthumb 16.2841 26.1328
rfemur 1.88863 6.29939 24.3859
rtibia 31.8119
rfoot -25.03 -34.4436
rtoes 4.58801
lfemur 4.00485 1.37652 -14.1322
ltibia 21.4866
lfoot 1.95032 -0.260226
ltoes -5.97804
628
root -2.38493 1.15457 21.4941 -1000.51 -1.4752 -177.198
lowerback 10.7981 -1.45979 1.2175
upperback 7.96096 -2.61003 1.32988
thorax 2.27312 -1.66593 0.90415
lowerneck -24.5438 -3.22001 -5.03962
upperneck 0.739363 -3.67063 4.09569
head 4.15443 -1.80247 1.70577
rclavicle -1.98785e-015 1.33186e-014
rhumerus -61.7809 56.0063 -106.707
rradius 25.4195
rwrist -14.1281
rhand -13.7032 -3.66558
rfingers 7.12502
rthumb 12.4153 -33.2769
lclavicle -1.98785e-015 1.33186e-014
lhumerus -44.8432 -45.4149 100.243
lradius 20.8219
lwrist 26.3341
lhand -9.68911 -3.21057
lfingers 7.12502
lthumb 16.283 26.1257
rfemur 1.85702 6.24092 24.3514
rtibia 31.8097
rfoot -24.958 -34.4024
rtoes 4.5286
lfemur 3.9854 1.32199 -14.1532
ltibia 21.4771
lfoot 1.88568 -0.111589
ltoes -6.20329
629
root -2.38497 1.15357 21.4946 -1000.48 -1.4746 -177.21
lowerback 10.776 -1.4514 1.21847
upperback 7.96463 -2.59942 1.33811
thorax 2.28925 -1.66071 0.910203
lowerneck -24.5976 -3.23273 -5.06593
upperneck 0.788036 -3.67543 4.08614
head 4.1776 -1.80462 1.70557
rclavicle 5.96354e-015 7.65321e-015
rhumerus -61.716 55.9781 -106.626
rradius 25.4164
rwrist -14.1048
rhand -13.7016 -3.66996
rfingers 7.12502
rthumb 12.4168 -33.2812
lclavicle 5.96354e-015 7.65321e-015
lhumerus -44.7375 -45.322 100.161
lradius 20.7779
lwrist 26.2184
lhand -9.68019 -3.23136
lfingers 7.12502
lthumb 16.2916 26.1043
rfemur 1.82265 6.16212 24.322
rtibia 31.8059
rfoot -24.8634 -34.3585
rtoes 4.3801
lfemur 3.96418 1.30969 -14.1459
ltibia 21.4714
lfoot 1.85127 -0.00842901
ltoes -6.23168
630
root -2.38506 1.15285 21.4952 -1000.46 -1.47586 -177.209
lowerback 10.7445 -1.45085 1.2288
upperback 7.96601 -2.59746 1.32971
thorax 2.30695 -1.65848 0.894247
lowerneck -24.5779 -3.23733 -5.072
upperneck 0.759107 -3.68134 4.08345
head 4.16596 -1.80843 1.70538
rclavicle -1.70955e-014 8.94531e-016
rhumerus -61.7098 55.9872 -106.633
rradius 25.4352
rwrist -14.0953
rhand -13.6737 -3.66185
rfingers 7.12502
rthumb 12.4437 -33.2714
lclavicle -1.70955e-014 8.94531e-016
lhumerus -44.7039 -45.2825 100.102
lradius 20.7931
lwrist 26.1838
lhand -9.69944 -3.23657
lfingers 7.12502
lthumb 16.2731 26.1006
rfemur 1.7815 6.07566 24.2883
rtibia 31.8056
rfoot -24.7647 -34.3093
rtoes 4.42334
lfemur 3.9429 1.29671 -14.1407
ltibia 21.4584
lfoot 1.83165 0.0882055
ltoes -5.99104
